<svg width="24" height="24" viewBox="0 0 24 24" fill="none" xmlns="http://www.w3.org/2000/svg">
<path fill-rule="evenodd" clip-rule="evenodd" d="M11.5833 6.34313C9.46624 6.34313 7.75 8.08717 7.75 10.2386C7.75 12.3899 9.46624 14.134 11.5833 14.134C13.7004 14.134 15.4167 12.3899 15.4167 10.2386C15.4167 8.08717 13.7004 6.34313 11.5833 6.34313ZM9.66667 10.2386C9.66667 9.16286 10.5248 8.29085 11.5833 8.29085C12.6419 8.29085 13.5 9.16286 13.5 10.2386C13.5 11.3142 12.6419 12.1863 11.5833 12.1863C10.5248 12.1863 9.66667 11.3142 9.66667 10.2386Z" fill="white"/>
<path fill-rule="evenodd" clip-rule="evenodd" d="M18.3598 3.35236C14.6172 -0.450785 8.54941 -0.450785 4.80689 3.35236C1.06437 7.1555 1.06437 13.3216 4.80689 17.1248L10.725 23.1387C11.199 23.6205 11.9676 23.6205 12.4417 23.1387L18.3598 17.1248C22.1023 13.3216 22.1023 7.1555 18.3598 3.35236ZM6.16219 4.7296C9.1562 1.68709 14.0105 1.68709 17.0045 4.7296C19.9985 7.77211 19.9985 12.705 17.0045 15.7476L11.5833 21.2564L6.16219 15.7476C3.16816 12.705 3.16816 7.77211 6.16219 4.7296Z" fill="white"/>
</svg>
